<?xml version="1.0" encoding="UTF-8" standalone="no"?>
<!-- Created with Inkscape (http://www.inkscape.org/) -->

<svg
   version="1.0"
   width="600"
   height="199.41692"
   id="svg2424"
   sodipodi:docname="arch.svg"
   inkscape:version="1.3.2 (091e20ef0f, 2023-11-25, custom)"
   xmlns:inkscape="http://www.inkscape.org/namespaces/inkscape"
   xmlns:sodipodi="http://sodipodi.sourceforge.net/DTD/sodipodi-0.dtd"
   xmlns:xlink="http://www.w3.org/1999/xlink"
   xmlns="http://www.w3.org/2000/svg"
   xmlns:svg="http://www.w3.org/2000/svg">
  <sodipodi:namedview
     id="namedview1"
     pagecolor="#ffffff"
     bordercolor="#000000"
     borderopacity="0.25"
     inkscape:showpageshadow="2"
     inkscape:pageopacity="0.0"
     inkscape:pagecheckerboard="0"
     inkscape:deskcolor="#d1d1d1"
     inkscape:zoom="1.1834503"
     inkscape:cx="299.97036"
     inkscape:cy="99.285964"
     inkscape:window-width="1920"
     inkscape:window-height="1147"
     inkscape:window-x="0"
     inkscape:window-y="0"
     inkscape:window-maximized="1"
     inkscape:current-layer="svg2424" />
  <defs
     id="defs2426">
    <linearGradient
       x1="112.49854"
       y1="6.1372099"
       x2="112.49853"
       y2="129.3468"
       id="path1082_2_"
       gradientUnits="userSpaceOnUse"
       gradientTransform="translate(287,-83)">
      <stop
         id="stop193"
         style="stop-color:#ffffff;stop-opacity:0"
         offset="0" />
      <stop
         id="stop195"
         style="stop-color:#ffffff;stop-opacity:0.27450982"
         offset="1" />
      <midPointStop
         offset="0"
         style="stop-color:#FFFFFF"
         id="midPointStop197" />
      <midPointStop
         offset="0.5"
         style="stop-color:#FFFFFF"
         id="midPointStop199" />
      <midPointStop
         offset="1"
         style="stop-color:#000000"
         id="midPointStop201" />
    </linearGradient>
    <linearGradient
       x1="541.33502"
       y1="104.50665"
       x2="606.91248"
       y2="303.14029"
       id="linearGradient2544"
       xlink:href="#path1082_2_"
       gradientUnits="userSpaceOnUse"
       gradientTransform="matrix(-0.3937741,0,0,0.393752,357.51969,122.00151)" />
    <linearGradient
       id="linearGradient3388">
      <stop
         id="stop3390"
         style="stop-color:#000000;stop-opacity:0"
         offset="0" />
      <stop
         id="stop3392"
         style="stop-color:#000000;stop-opacity:0.37113401"
         offset="1" />
    </linearGradient>
    <linearGradient
       x1="490.72305"
       y1="237.72447"
       x2="490.72305"
       y2="183.9644"
       id="linearGradient4416"
       xlink:href="#linearGradient3388"
       gradientUnits="userSpaceOnUse"
       gradientTransform="matrix(0.749107,0,0,0.749107,-35.459862,91.44108)" />
  </defs>
  <path
     d="m 201.53206,67.947209 c -8.07351,-0.01333 -14.7737,1.642255 -17.36445,2.545391 l -2.66743,14.400634 c -0.006,0.05306 13.27532,-3.541816 19.1253,-3.329928 9.68592,0.348019 10.57738,3.701854 10.40821,8.228934 0.1651,0.264787 -2.49899,-4.090433 -10.87893,-4.236507 -10.57187,-0.182358 -25.49176,3.743172 -25.47134,19.700627 -0.28501,17.94974 13.4082,23.23004 22.73417,23.32694 8.38415,-0.15267 12.31701,-3.17518 14.47037,-4.7944 2.82921,-2.95816 6.06603,-5.93291 9.15295,-9.50163 -2.92095,5.30712 -5.45326,8.9764 -8.08946,11.7855 v 2.37105 l 12.74438,-2.1444 0.0872,-34.641723 c -0.1291,-4.902988 2.81248,-23.664891 -24.25094,-23.710488 z m -1.83059,30.161136 c 5.28263,0.0725 11.3408,2.676265 11.34965,8.943735 0.0273,5.70068 -7.14107,8.76553 -11.80294,8.71709 -4.66386,-0.0484 -10.85156,-3.66526 -10.87893,-9.22268 0.0893,-4.96773 5.83531,-8.566003 11.33222,-8.438145 z"
     id="path2284"
     style="fill:#d5c4a1;fill-opacity:1;fill-rule:evenodd;stroke:none;stroke-width:0.557894" />
  <path
     d="m 234.18687,71.148237 -0.0865,57.366513 14.84674,-2.86046 0.025,-32.526085 c 0.003,-4.843015 6.92098,-10.502078 15.60022,-10.4119 1.84218,-3.332903 5.30485,-11.850887 6.14848,-13.788425 -19.39043,-0.04647 -19.63729,5.573321 -23.00976,8.337819 -0.0352,-5.273687 -0.0119,-8.439489 -0.0119,-8.439489 l -13.5123,2.322027 z"
     id="path2286"
     style="fill:#d5c4a1;fill-opacity:1;fill-rule:evenodd;stroke:none;stroke-width:0.557894" />
  <path
     d="m 317.74137,78.679318 c -0.14336,-0.06733 -7.74322,-8.889586 -23.02226,-8.959161 -14.31136,-0.237875 -30.36381,5.310563 -30.62073,29.307725 0.12528,21.098718 15.4203,29.344148 30.70168,29.504928 16.35349,0.16988 22.86056,-10.2259 23.25086,-10.48352 -1.9513,-1.69159 -9.25987,-8.93361 -9.25987,-8.93361 0,0 -4.56489,6.50003 -13.42182,6.58266 -8.85903,0.0844 -16.55966,-6.84717 -16.66878,-16.518705 -0.11353,-9.67162 7.079,-14.911504 16.73528,-15.334756 8.35985,-0.0017 13.18286,5.396697 13.18286,5.396697 z"
     id="path2288"
     style="fill:#d5c4a1;fill-opacity:1;fill-rule:evenodd;stroke:none;stroke-width:0.557894" />
  <path
     d="m 336.45519,51.07092 -14.01708,3.295061 0.10461,74.722909 13.80787,-2.49309 0.15691,-35.164747 c 0.0295,-3.687271 5.33417,-9.349832 14.19142,-9.17038 8.46868,0.08801 10.36141,5.644586 10.33847,6.346042 l 0.24408,40.708815 13.6161,-2.40592 0.0523,-43.167032 c 0.0897,-4.153737 -9.09831,-12.926143 -23.86739,-12.988466 -7.01879,0.01127 -10.9058,1.600179 -12.88386,2.772036 -3.3845,2.614095 -7.25251,5.118915 -11.05328,8.316105 3.51367,-4.513914 6.46349,-7.634867 9.34473,-9.954919 l -0.0349,-20.816414 z"
     id="path2290"
     style="fill:#d5c4a1;fill-opacity:1;fill-rule:evenodd;stroke:none;stroke-width:0.557894" />
  <path
     d="m 386.77685,53.009883 6.32229,-1.582316 0.29915,75.333273 -6.42342,1.09378 z"
     id="path2292"
     style="fill:#a89984;fill-opacity:1;fill-rule:evenodd;stroke:none;stroke-width:0.825951" />
  <path
     d="m 403.9666,75.493492 5.54079,-2.466868 0.0474,54.016626 -5.3512,1.10607 z m -1.31683,-19.478535 4.46772,-3.646846 3.7113,4.129358 -4.46959,3.743384 z"
     id="path2294"
     style="fill:#a89984;fill-opacity:1;fill-rule:evenodd;stroke:none;stroke-width:0.825951" />
  <path
     d="m 419.92662,74.509429 6.32303,-1.290143 0.0299,11.292567 c 0.001,0.484974 3.47168,-12.615278 20.21422,-12.323966 16.25588,0.09046 18.91525,12.675326 18.82723,15.496799 l 0.20051,39.710324 -5.54199,1.20284 -0.0321,-39.22359 c 0.0642,-1.145462 -2.53321,-10.831861 -14.02073,-10.867484 -11.48539,-0.03337 -19.44347,8.342502 -19.42933,13.693748 l 0.0915,34.553466 -6.42188,1.67776 z"
     id="path2296"
     style="fill:#a89984;fill-opacity:1;fill-rule:evenodd;stroke:none;stroke-width:0.825951" />
  <path
     d="m 520.6937,127.68076 -6.32307,1.29002 -0.0298,-11.29238 c -10e-4,-0.48518 -3.47384,12.61525 -20.21424,12.32389 -16.25585,-0.0904 -18.91523,-12.67525 -18.82721,-15.49673 l -0.20054,-39.710575 6.71788,-1.356426 0.10373,39.224311 c 0.003,1.07111 1.28572,10.98498 12.77321,11.02034 11.48542,0.0335 19.53186,-6.91618 19.58886,-17.38145 l -0.0819,-30.947573 6.25283,-1.595696 z"
     id="path2298"
     style="fill:#a89984;fill-opacity:1;fill-rule:evenodd;stroke:none;stroke-width:0.825951" />
  <path
     d="m 533.08542,74.063944 -4.43347,3.469135 16.99814,22.24557 -18.13011,25.700471 4.70362,3.49047 17.04327,-23.86726 17.58988,24.43295 4.35096,-3.46985 -18.85098,-26.123722 15.03865,-21.125762 -4.62444,-3.910292 -13.69936,19.548428 z"
     id="path2300"
     style="fill:#a89984;fill-opacity:1;fill-rule:evenodd;stroke:none;stroke-width:0.825951" />
  <path
     d="m 105.8125,16.625 c -7.39687,18.135158 -11.858304,29.997682 -20.09375,47.59375 5.04936,5.35232 11.247211,11.585364 21.3125,18.625 C 96.210077,78.390904 88.828713,73.920352 83.3125,69.28125 72.7727,91.274163 56.259864,122.60209 22.75,182.8125 49.087628,167.60733 69.504089,158.23318 88.53125,154.65625 87.714216,151.1422 87.2497,147.34107 87.28125,143.375 l 0.03125,-0.84375 c 0.417917,-16.87382 9.195665,-29.84979 19.59375,-28.96875 10.39809,0.88104 18.48041,15.28242 18.0625,32.15625 -0.0786,3.17512 -0.43674,6.22955 -1.0625,9.0625 18.82058,3.68164 39.01873,13.03179 65,28.03125 -5.123,-9.4318 -9.69572,-17.93388 -14.0625,-26.03125 -6.87839,-5.33121 -14.05289,-12.2698 -28.6875,-19.78125 10.05899,2.61375 17.2611,5.62932 22.875,9 C 124.63297,63.338161 121.03766,52.354109 105.8125,16.625 Z"
     id="path2518"
     style="fill:#a89984;fill-opacity:1;fill-rule:evenodd;stroke:none;stroke-opacity:1" />
  <path
     d="m 579.48698,124.36711 v -4.66132 h -1.74125 v -0.62368 h 4.18907 v 0.62368 h -1.74845 v 4.66132 h -0.69937"
     id="path3945"
     style="font-style:normal;font-weight:normal;font-size:8.44138px;font-family:'DejaVu Sans Mono';fill:#a89984;fill-opacity:1;stroke:none;stroke-width:0.874636" />
  <path
     d="m 582.66302,124.36711 v -5.285 h 1.05267 l 1.25096,3.74204 c 0.11535,0.34849 0.19947,0.60926 0.25235,0.7823 0.0601,-0.19227 0.15381,-0.47467 0.28119,-0.84719 l 1.26537,-3.67715 h 0.94092 v 5.285 h -0.67415 v -4.42339 l -1.53574,4.42339 h -0.63089 l -1.52853,-4.49909 v 4.49909 h -0.67415"
     id="path3947"
     style="font-style:normal;font-weight:normal;font-size:8.44138px;font-family:'DejaVu Sans Mono';fill:#a89984;fill-opacity:1;stroke:none;stroke-width:0.874636" />
  <path
     d="m 189.72627,167.97942 v -4.55637 h -1.70202 v -0.60962 h 4.09473 v 0.60962 h -1.70908 v 4.55637 h -0.68363"
     id="path3940"
     style="font-style:normal;font-weight:normal;font-size:8.2513px;font-family:'DejaVu Sans Mono';fill:#a89984;fill-opacity:1;stroke:none;stroke-width:0.874636;stroke-opacity:1" />
  <path
     d="m 192.8308,167.97942 v -5.16599 h 1.02897 l 1.22279,3.65777 c 0.11275,0.34064 0.19498,0.59554 0.24666,0.76469 0.0587,-0.18795 0.15035,-0.46398 0.27486,-0.82812 l 1.23689,-3.59434 h 0.91972 v 5.16599 h -0.65896 v -4.32379 l -1.50117,4.32379 h -0.61667 l -1.49412,-4.39779 v 4.39779 h -0.65897"
     id="path3942"
     style="font-style:normal;font-weight:normal;font-size:8.2513px;font-family:'DejaVu Sans Mono';fill:#a89984;fill-opacity:1;stroke:none;stroke-width:0.874636;stroke-opacity:1" />
</svg>
