<?xml version="1.0" encoding="UTF-8" standalone="no"?>
<svg
   inkscape:version="1.3.2 (091e20ef0f, 2023-11-25, custom)"
   sodipodi:docname="AMD_Ryzen_logo.svg"
   viewBox="0 0 920 500"
   height="500"
   width="920"
   id="svg833"
   version="1.1"
   xmlns:inkscape="http://www.inkscape.org/namespaces/inkscape"
   xmlns:sodipodi="http://sodipodi.sourceforge.net/DTD/sodipodi-0.dtd"
   xmlns="http://www.w3.org/2000/svg"
   xmlns:svg="http://www.w3.org/2000/svg"
   xmlns:rdf="http://www.w3.org/1999/02/22-rdf-syntax-ns#"
   xmlns:cc="http://creativecommons.org/ns#"
   xmlns:dc="http://purl.org/dc/elements/1.1/">
  <metadata
     id="metadata839">
    <rdf:RDF>
      <cc:Work
         rdf:about="">
        <dc:format>image/svg+xml</dc:format>
        <dc:type
           rdf:resource="http://purl.org/dc/dcmitype/StillImage" />
        <dc:title />
      </cc:Work>
    </rdf:RDF>
  </metadata>
  <defs
     id="defs837" />
  <sodipodi:namedview
     inkscape:current-layer="g845"
     inkscape:window-maximized="1"
     inkscape:window-y="0"
     inkscape:window-x="0"
     inkscape:cy="-67.333333"
     inkscape:cx="634.66667"
     inkscape:zoom="0.75"
     showgrid="false"
     id="namedview835"
     inkscape:window-height="1147"
     inkscape:window-width="1920"
     inkscape:pageshadow="2"
     inkscape:pageopacity="0"
     guidetolerance="10"
     gridtolerance="10"
     objecttolerance="10"
     borderopacity="1"
     bordercolor="#666666"
     pagecolor="#ffffff"
     inkscape:showpageshadow="2"
     inkscape:pagecheckerboard="0"
     inkscape:deskcolor="#d1d1d1" />
  <g
     id="g841"
     inkscape:label="Image"
     inkscape:groupmode="layer">
    <g
       id="g845">
      <path
         id="path847"
         d="m 54,331.50861 v -40.49139 l 54.25,-0.25861 54.25,-0.25861 0.28166,-12.35939 c 0.18819,-8.25828 -0.1013,-12.82083 -0.87245,-13.75 C 160.95007,263.23491 151.73811,263 107.37756,263 H 54 v -13 -13 l 55.75,0.006 c 34.85901,0.003 57.12798,0.3883 59.42731,1.02693 6.33719,1.76013 12.88695,6.99052 16.23855,12.96749 l 3.08414,5.5 v 21 c 0,23.4222 -0.20188,24.29533 -7.36018,31.83242 -4.42168,4.65566 -7.47207,6.33102 -14.12484,7.75779 l -5.08495,1.09053 2.35318,4.15963 c 5.96461,10.54343 26.16644,45.39781 27.47893,47.40963 l 1.46788,2.25 -15.36501,-0.0204 -15.36501,-0.0204 -5.57186,-9.7296 c -3.06453,-5.35129 -10.03953,-17.48247 -15.5,-26.95818 L 131.5,318.04286 105.75,318.02143 80,318 v 27 27 H 67 54 Z m 218,13.88437 V 318.78597 L 260.79333,303.14298 C 254.62966,294.53934 241.37131,276.1375 231.33032,262.25 L 213.07399,237 h 16.28392 16.28393 l 18.92908,26.44824 c 10.41099,14.54653 19.39141,26.47153 19.95649,26.5 0.56507,0.0285 9.56507,-11.85806 20,-26.41451 L 323.5,237.06746 l 16.37244,-0.0337 c 12.94253,-0.0267 16.17323,0.22814 15.42149,1.21627 -0.52303,0.6875 -6.95588,9.575 -14.29523,19.75 -14.79662,20.51348 -32.0333,44.33241 -38.67048,53.43774 L 298,317.37548 V 344.68774 372 H 285 272 Z M 385.06616,358.25 385.13236,344.5 431.5662,304.58371 C 457.10477,282.62974 478,264.29224 478,263.83371 478,263.37517 457.075,263 431.5,263 H 385 v -13 -13 h 67 67 v 13.91667 c 0,7.65416 -0.3918,14.06666 -0.87066,14.25 C 516.40803,265.82567 426,344.30985 426,345.14513 426,345.61531 446.925,346 472.5,346 H 519 v 13 13 h -67 -67 l 0.0662,-13.75 z M 558,331.5 V 291 h 67 67 v 13.5 13.5 h -54.02822 -54.02822 l 0.27822,13.75 0.27822,13.75 53.75,0.25869 53.75,0.25868 V 359.00869 372 h -67 -67 z m 176,-27 V 237 h 13.41377 13.41377 l 8.33623,9.7286 c 38.24751,44.63583 72.25133,83.82911 72.96868,84.10473 0.4825,0.18539 0.86755,-20.56386 0.86755,-46.75 L 843,237 h 13 13 V 304.5 372 H 855.59534 842.19069 L 802.03138,325.25 C 779.94376,299.5375 761.45086,278.35 760.93604,278.16667 760.36319,277.96267 760,296.1019 760,324.91667 V 372 H 747 734 Z M 558,250 v -13 h 67 67 v 13 13 H 625 558 Z M 282,186.73124 V 172.46248 L 292,162.5 302,152.53752 V 166.76876 181 h 13.73124 13.73124 L 319.5,191 309.53752,201 H 295.76876 282 Z m 62.23025,2.99997 L 335,180.46242 V 164.23121 148 H 318.73025 302.4605 L 293,138.5 283.5395,129 H 318.76975 354 v 35 c 0,19.25 -0.12139,35 -0.26975,35 -0.14836,0 -4.42336,-4.17096 -9.5,-9.26879 z M 63.172413,166.25 c 6.622148,-16.3625 12.271764,-30.32867 12.554703,-31.03593 0.378151,-0.94526 2.893137,-1.21018 9.49341,-1 l 8.978975,0.28593 13.352259,30 c 7.34375,16.5 13.37386,30.3375 13.40025,30.75 0.0264,0.4125 -3.48106,0.75 -7.79434,0.75 h -7.84232 l -2.44936,-6.25 -2.44935,-6.25 H 86.007413 71.59819 l -2.386575,6.25 -2.386574,6.25 h -7.846449 -7.846448 z m 31.891047,4.5 c -4.150603,-10.52814 -8.983422,-21.22217 -9.695573,-21.45431 -0.701029,-0.22851 -3.625552,6.95834 -9.137257,22.45431 -0.336744,0.94675 2.001382,1.25 9.63763,1.25 10.051814,0 10.079562,-0.007 9.1952,-2.25 z M 130,165 v -31 h 6.43709 6.43708 l 9.81292,11.42159 c 5.3971,6.28188 10.03791,11.42159 10.31291,11.42159 0.275,0 4.91581,-5.13971 10.31291,-11.42159 L 183.12583,134 H 189.56291 196 v 31 31 h -7 -7 v -19.5 c 0,-10.725 -0.38221,-19.5 -0.84935,-19.5 -0.46714,0 -4.40464,4.27002 -8.75,9.48894 -4.34536,5.21891 -8.57565,9.48893 -9.40065,9.48893 -0.825,0 -5.05529,-4.27002 -9.40065,-9.48893 C 149.25399,161.27002 145.31649,157 144.84935,157 144.38221,157 144,165.775 144,176.5 V 196 h -7 -7 z m 79,-0.092 v -31.09203 l 19.2746,0.34203 19.2746,0.34202 6.72044,3.31022 c 3.77723,1.86051 7.80435,4.7313 9.1954,6.55506 9.54617,12.51567 9.20343,31.06637 -0.76626,41.47401 C 255.44519,193.41151 245.05856,196 221.92764,196 H 209 v -31.09202 z m 34.74552,18.55388 c 4.7503,-1.9848 7.02196,-4.08929 9.36089,-8.67202 2.2825,-4.47217 2.54114,-14.30428 0.50449,-19.17865 C 250.47949,148.11666 242.22133,144 230.3185,144 H 224 v 20.5 20.5 h 8.03212 c 4.96595,0 9.4374,-0.58717 11.7134,-1.53814 z"
         style="fill:#d5c4a1;fill-opacity:1" />
    </g>
  </g>
</svg>
